<?xml version="1.0" encoding="UTF-8"?><svg id="b" xmlns="http://www.w3.org/2000/svg" viewBox="0 0 1251.65 284.76"><defs><style>.d{fill:#fff;}</style></defs><g id="c"><path class="d" d="M1070.5,32.26h-40.9V222.01h40.9V32.26m30.15,54.5c0,16.23,5.7,29.02,17.1,38.35,8.23,6.8,20.83,12.5,37.8,17.1,9.07,2.53,21.6,5.8,37.6,9.8,11.4,4.27,17.1,9.97,17.1,17.1,0,5.7-2.73,10.55-8.2,14.55-6.03,4.23-14.38,6.35-25.05,6.35-12.37,0-23.93-2.42-34.7-7.25-9.7-4.63-18.18-10.7-25.45-18.2l-21.85,30.9c19.9,20.37,46.62,30.18,80.15,29.45,24.97,0,44.05-5.82,57.25-17.45,12.6-10.8,18.9-25.33,18.9-43.6,0-26.9-18.17-45.45-54.5-55.65-17.93-3.87-30.42-7.07-37.45-9.6-11.37-3.77-17.05-8.92-17.05-15.45,0-5.7,2.3-10.25,6.9-13.65,4.83-3.5,11.48-5.25,19.95-5.25,9.6,0,19.3,1.68,29.1,5.05,9.93,3.63,18.6,8.85,26,15.65l22.55-29.45c-19.03-17.57-43.7-26.35-74-26.35-21.67,0-39.23,5.63-52.7,16.9-12.97,10.9-19.45,24.47-19.45,40.7m-248.8,0c0,16.37,5.63,29.15,16.9,38.35,8.23,6.8,20.83,12.5,37.8,17.1,9.1,2.53,21.63,5.8,37.6,9.8,11.4,4.27,17.1,9.97,17.1,17.1,0,5.7-2.72,10.55-8.15,14.55-6.07,4.23-14.43,6.35-25.1,6.35-12.37,0-23.93-2.42-34.7-7.25-9.7-4.63-18.18-10.7-25.45-18.2l-21.8,30.9c20.33,20.37,47.05,30.18,80.15,29.45,24.93,0,44.02-5.82,57.25-17.45,12.6-10.8,18.9-25.33,18.9-43.6,0-26.9-18.18-45.45-54.55-55.65-17.93-3.87-30.42-7.07-37.45-9.6-11.37-3.77-17.05-8.92-17.05-15.45,0-5.7,2.3-10.25,6.9-13.65,4.83-3.5,11.5-5.25,20-5.25,9.57,0,19.25,1.68,29.05,5.05,9.93,3.63,18.6,8.85,26,15.65l22.55-29.45c-19.03-17.57-43.7-26.35-74-26.35-21.57,0-39.18,5.63-52.85,16.9-12.73,10.9-19.1,24.47-19.1,40.7M454.75,32.26h-56.75V222.36h40V89.31l53.6,133.05h17.65l53.6-133.05V222.01h41.25V32.26h-57.05l-46.35,115.05-45.95-115.05m-234.85,54.5c0,16.37,5.7,29.15,17.1,38.35,8,6.8,20.48,12.5,37.45,17.1,7.37,2.07,19.9,5.33,37.6,9.8,11.5,4.27,17.25,9.97,17.25,17.1,0,5.7-2.72,10.55-8.15,14.55-6.07,4.23-14.37,6.35-24.9,6.35-12.6,0-24.3-2.42-35.1-7.25-9.33-4.37-17.82-10.43-25.45-18.2l-21.8,30.9c20.23,20.37,47.02,30.18,80.35,29.45,24.97,0,44.05-5.82,57.25-17.45,12.47-10.8,18.7-25.33,18.7-43.6,0-26.9-18.17-45.45-54.5-55.65-17.7-3.87-30.25-7.07-37.65-9.6-11.27-3.77-16.9-8.92-16.9-15.45,0-5.7,2.3-10.25,6.9-13.65,4.87-3.5,11.53-5.25,20-5.25,9.57,0,19.27,1.68,29.1,5.05,9.93,3.63,18.65,8.85,26.15,15.65l22.35-29.45c-18.77-17.57-43.42-26.35-73.95-26.35-21.7,0-39.27,5.63-52.7,16.9-12.73,10.9-19.1,24.47-19.1,40.7M99.05,29.36c-28.7,0-52.38,9.2-71.05,27.6C9.33,75.62,0,99.14,0,127.51s9.38,52.03,28.15,70.7c18.67,18.27,42.3,27.4,70.9,27.4s52.45-9.13,71.25-27.4c18.53-18.67,27.8-42.23,27.8-70.7,0-28.23-9.27-51.75-27.8-70.55-19.03-18.4-42.78-27.6-71.25-27.6M41.8,127.51c0-17.93,5.15-32.78,15.45-44.55,10.9-12,24.83-18,41.8-18s31.15,6,42.15,18c10.57,11.87,15.85,26.72,15.85,44.55s-5.28,32.7-15.85,44.3c-11,12.13-25.05,18.2-42.15,18.2s-31.03-6-41.8-18c-10.3-11.5-15.45-26.33-15.45-44.5m1207.15,126.4c-.8-1.27-1.93-2.27-3.4-3-1.47-.73-3.17-1.1-5.1-1.1h-16.3v34.35h16.95c2.07,0,3.9-.4,5.5-1.2,1.57-.8,2.8-1.88,3.7-3.25,.9-1.4,1.35-3.03,1.35-4.9s-.55-3.62-1.65-5.15c-1.07-1.47-2.62-2.7-4.65-3.7,1.57-.87,2.77-1.9,3.6-3.1,.83-1.2,1.27-2.7,1.3-4.5-.03-1.67-.47-3.15-1.3-4.45m-3.85,5.3c-.03,1.43-.58,2.6-1.65,3.5-1.1,.9-2.52,1.37-4.25,1.4h-10v-9.85h10c1.73,.03,3.15,.5,4.25,1.4,1.07,.93,1.62,2.12,1.65,3.55m-15.9,9.2h10.75c1.97,.03,3.55,.57,4.75,1.6,1.17,1.03,1.77,2.38,1.8,4.05-.03,1.7-.63,3.05-1.8,4.05-1.2,1.03-2.78,1.57-4.75,1.6h-10.75v-11.3m-44.3,15.75h5.6l-14.75-34.35h-5.6l-14.75,34.35h5.6l3-7h17.9l3,7m-4.95-11.55h-14l7-16.3,7,16.3m-55.4,6.85h-18.2v-29.65h-5.1v34.35h23.3v-4.7m-98.9-24.95v-4.7h-27.6v4.7h11.25v29.65h5.05v-29.65h11.3m-60.75,11.35c.73-1.47,1.1-3.08,1.1-4.85,0-2.2-.57-4.13-1.7-5.8-1.1-1.67-2.6-2.98-4.5-3.95-1.9-.97-4.08-1.45-6.55-1.45h-14.45v34.35h5.05v-11.95h7.9l8.4,11.95h5.8l-8.75-12.45c1.77-.47,3.3-1.2,4.6-2.2s2.33-2.22,3.1-3.65m-21.05,1.65v-13h8.7c2.5,.03,4.5,.62,6,1.75,1.5,1.13,2.27,2.72,2.3,4.75-.03,2.03-.8,3.62-2.3,4.75-1.5,1.17-3.5,1.75-6,1.75h-8.7m-48.1-15.85c-2.67-1.6-5.63-2.42-8.9-2.45-2.43,0-4.72,.47-6.85,1.4s-4.03,2.22-5.7,3.85c-1.67,1.63-2.95,3.52-3.85,5.65-.97,2.13-1.45,4.42-1.45,6.85,0,2.43,.48,4.72,1.45,6.85,.9,2.13,2.18,4.03,3.85,5.7,1.67,1.63,3.57,2.92,5.7,3.85,2.13,.93,4.42,1.4,6.85,1.4s4.72-.47,6.85-1.4c2.13-.93,4.02-2.22,5.65-3.85,1.63-1.67,2.92-3.57,3.85-5.7,.93-2.13,1.4-4.42,1.4-6.85-.03-3.27-.85-6.23-2.45-8.9-1.6-2.67-3.73-4.8-6.4-6.4m-2.6,4c1.9,1.17,3.43,2.75,4.6,4.75,1.1,1.97,1.67,4.15,1.7,6.55-.03,2.43-.6,4.63-1.7,6.6-1.17,2-2.7,3.58-4.6,4.75-1.87,1.17-3.97,1.77-6.3,1.8-2.33-.03-4.45-.63-6.35-1.8-1.9-1.17-3.42-2.75-4.55-4.75-1.13-1.97-1.72-4.17-1.75-6.6,.03-2.4,.62-4.58,1.75-6.55,1.13-2,2.65-3.58,4.55-4.75,1.9-1.17,4.02-1.77,6.35-1.8,2.33,.03,4.43,.63,6.3,1.8m-57.75-.45c-1.1-1.67-2.6-2.98-4.5-3.95-1.9-.97-4.08-1.45-6.55-1.45h-14.45v34.35h5.05v-11.95h9.4c2.47,0,4.65-.48,6.55-1.45,1.9-.93,3.4-2.25,4.5-3.95,1.13-1.67,1.7-3.6,1.7-5.8s-.57-4.13-1.7-5.8m-3.45,5.8c-.03,2.03-.8,3.62-2.3,4.75-1.5,1.17-3.5,1.75-6,1.75h-8.7v-13h8.7c2.5,.03,4.5,.62,6,1.75,1.5,1.13,2.27,2.72,2.3,4.75m-57-5.8c-1.1-1.67-2.6-2.98-4.5-3.95-1.9-.97-4.08-1.45-6.55-1.45h-14.45v34.35h5.05v-11.95h9.4c2.47,0,4.65-.48,6.55-1.45,1.9-.93,3.4-2.25,4.5-3.95,1.13-1.67,1.7-3.6,1.7-5.8s-.57-4.13-1.7-5.8m-3.45,5.8c-.03,2.03-.8,3.62-2.3,4.75-1.5,1.17-3.5,1.75-6,1.75h-8.7v-13h8.7c2.5,.03,4.5,.62,6,1.75,1.5,1.13,2.27,2.72,2.3,4.75m-57.75,8.7v-19.9h-5.1v19.8c-.03,2.07-.45,3.9-1.25,5.5-.8,1.57-1.93,2.8-3.4,3.7-1.43,.9-3.1,1.35-5,1.35s-3.62-.45-5.05-1.35c-1.47-.9-2.6-2.13-3.4-3.7-.8-1.6-1.22-3.43-1.25-5.5v-19.8h-5.05v19.9c.03,2.97,.67,5.58,1.9,7.85,1.27,2.23,3,3.98,5.2,5.25,2.2,1.3,4.75,1.95,7.65,1.95s5.42-.65,7.65-1.95c2.2-1.27,3.93-3.02,5.2-5.25,1.23-2.27,1.87-4.88,1.9-7.85m-77.65-.5c1.9,.43,3.5,.9,4.8,1.4,1.27,.47,2.22,1.05,2.85,1.75,.63,.7,.95,1.58,.95,2.65,0,.93-.27,1.8-.8,2.6-.53,.8-1.35,1.43-2.45,1.9-1.03,.5-2.35,.75-3.95,.75-2.33,0-4.42-.43-6.25-1.3-1.83-.83-3.52-2-5.05-3.5l-3.05,3.75c1.83,1.77,3.93,3.12,6.3,4.05,2.33,.97,4.95,1.45,7.85,1.45,2.7,0,4.98-.45,6.85-1.35,1.83-.87,3.23-2.07,4.2-3.6,.97-1.53,1.45-3.28,1.45-5.25-.03-2-.53-3.65-1.5-4.95s-2.32-2.35-4.05-3.15c-1.73-.77-3.75-1.42-6.05-1.95-1.9-.43-3.48-.88-4.75-1.35-1.27-.47-2.22-1.03-2.85-1.7-.67-.67-1-1.53-1-2.6,0-.93,.28-1.78,.85-2.55,.53-.8,1.3-1.43,2.3-1.9,.97-.47,2.1-.72,3.4-.75,1.77,.03,3.48,.4,5.15,1.1,1.67,.73,3.23,1.77,4.7,3.1l2.9-3.8c-1.63-1.47-3.48-2.63-5.55-3.5-2.03-.87-4.37-1.32-7-1.35-2.33,.03-4.38,.48-6.15,1.35-1.8,.9-3.2,2.1-4.2,3.6-1.03,1.5-1.55,3.22-1.55,5.15,0,2.03,.48,3.7,1.45,5,.97,1.27,2.32,2.28,4.05,3.05,1.77,.77,3.82,1.4,6.15,1.9Z"/><path class="d" d="M719.82,115l3.36-12.56-9.2-9.24-12.59,3.36-3.39,12.59,9.2,9.24,12.63-3.39m-16.28-39.08c0,.55,.2,1.03,.6,1.43l23.53,23.53-4.62,17.18-17.21,4.62-23.53-23.53c-.4-.4-.88-.6-1.43-.6s-1.02,.2-1.4,.6l-3.12,3.12c-.33,.31-.52,.7-.56,1.16-.18,1.42-.27,2.88-.27,4.39,.02,10.28,3.68,19.06,10.97,26.35,7.24,7.24,16.01,10.88,26.28,10.9h.03c1.93-.02,3.81-.16,5.65-.4l22.4,22.4c.31,.31,.69,.5,1.13,.56,.44,.04,.86-.04,1.26-.27,3.81-2.19,7.57-4.69,11.26-7.48l-22.16-21.7c-1.31-1.28-1.97-2.85-1.99-4.69-.02-1.82,.62-3.38,1.93-4.69,1.28-1.33,2.84-2,4.65-2.03,1.82-.02,3.39,.61,4.72,1.89l23,22.53c3.32-3.15,6.61-6.56,9.87-10.23,.35-.4,.52-.86,.5-1.4s-.21-.97-.56-1.33l-24.82-24.82c.27-1.82,.4-3.69,.4-5.62,0-10.3-3.62-19.07-10.87-26.32-7.29-7.29-16.08-10.93-26.38-10.93-1.51,0-2.96,.09-4.35,.27-.47,.04-.85,.23-1.16,.56l-3.12,3.12c-.4,.38-.6,.84-.6,1.4Z"/><path class="d" d="M843.74,40.64c-.2-.64-.41-1.22-.63-1.73-1.33-3.23-3.28-6.47-5.85-9.7-4.19-5.32-10.04-10.67-17.55-16.05-5.43-4.23-11.08-7.47-16.95-9.7-5.83-2.3-11.23-3.46-16.22-3.46-2.3,0-4.29,.24-5.95,.73-5.58,1.26-9.78,4.64-12.59,10.14-1.64,3.12-2.63,6.52-2.96,10.2-.2,2.08-.18,3.99,.07,5.72,.09,.95,.27,1.88,.53,2.79,.35,1.15,.91,2.2,1.66,3.16l2.19,2.72-4.95-1.89c-4.01-1.4-8.03-2.53-12.06-3.39-7.11-1.57-14.28-2.36-21.5-2.36-6.38,0-12.58,.58-18.61,1.73-7.09,1.26-14,3.35-20.74,6.25-12.18,5.16-22.9,12.41-32.13,21.73-9.33,9.33-16.57,20.06-21.73,32.2-5.36,12.56-8.04,25.68-8.04,39.34s2.68,26.94,8.04,39.34c5.16,12.12,12.41,22.85,21.73,32.2,9.35,9.33,20.06,16.57,32.13,21.73,6.73,2.9,13.65,5.01,20.74,6.31,6.03,1.11,12.23,1.66,18.61,1.66,13.76,0,26.87-2.66,39.34-7.98,12.12-5.16,22.84-12.41,32.17-21.73,8.62-8.62,15.45-18.42,20.5-29.41,.42-.93,.83-1.86,1.23-2.79,5.34-12.45,8.01-25.56,8.01-39.34,0-6.8-.63-13.41-1.89-19.84-2.37-12.14-6.98-23.58-13.82-34.33l-3.02-4.39,.9-2.63,3.92,.76c1.48,.22,2.99,.33,4.52,.33s3.03-.11,4.45-.33c1.93-.4,3.77-1.01,5.52-1.83h.07c3.03-1.42,5.56-3.5,7.58-6.25,1.04-1.33,1.89-2.76,2.56-4.29,.66-1.42,1.16-2.92,1.5-4.52,.64-3.3,.55-6.46-.27-9.47v-.1c-.22-.53-.39-1.05-.5-1.56m-3.85,2.56c.66,2.41,.72,4.92,.17,7.51-.49,2.57-1.53,4.87-3.12,6.91-2.7,3.35-6.03,5.39-9.97,6.15-1.26,.29-2.6,.43-4.02,.43-2.08,0-4.31-.3-6.68-.9-.09-.04-.18-.07-.27-.07,.53-1.35,1.1-2.7,1.69-4.05,.4,.11,1.14,.17,2.23,.17,2.64,0,4.67-.61,6.11-1.83,1.86-1.42,2.74-3.44,2.63-6.08,0-3.19-2.53-7.14-7.58-11.86-3.3-3.12-7.8-6.69-13.49-10.7-14.44-9.61-23.94-12.14-28.48-7.58-2.48,2.48-3.03,5.56-1.66,9.24-1.33,.89-2.77,1.79-4.32,2.72l-.33-.4s-.08-.1-.1-.17c-.11-.16-.21-.3-.3-.43-.58-.91-1.13-1.86-1.66-2.86-.22-.47-.33-.72-.33-.76-.86-2.15-1.14-4.67-.83-7.58,.33-3.01,1.16-5.78,2.49-8.31,2.3-4.3,5.48-6.91,9.54-7.84h-.07c1.53-.33,3.2-.5,5.02-.5,4.5,0,9.44,1.07,14.82,3.22,5.32,2.08,10.56,5.02,15.72,8.81,6.69,4.83,11.91,9.44,15.65,13.82,3.06,3.63,5.25,7.29,6.58,10.97v-.1c.16,.71,.34,1.4,.56,2.06m-87.39-8.71c4.1,.95,8.13,2.17,12.1,3.66-.11-.02,.06,.06,.5,.23,.42,.18,2.24,.85,5.45,2.03,6.36-3.35,13.57-8.17,21.63-14.49,3.52,1.42,7.81,3.78,12.86,7.08,6.03,3.94,11.08,8.05,15.15,12.33-.44,.58-.88,1.19-1.3,1.83-4.05,5.87-7.58,13.66-10.57,23.36l4.88,7.24c4.43,7.09,7.9,14.7,10.4,22.83,.86,3.01,1.59,6,2.19,8.97,1.26,6.25,1.89,12.64,1.89,19.17,0,15.49-3.17,29.64-9.5,42.47-4.61,9.3-10.88,17.92-18.81,25.85-18.81,18.87-41.58,28.31-68.32,28.31-6.36,0-12.47-.52-18.34-1.56-18.87-3.5-35.5-12.42-49.88-26.75-18.83-18.83-28.25-41.6-28.25-68.32s9.44-49.45,28.31-68.32c14.33-14.38,30.94-23.27,49.81-26.68,5.92-1.09,12.06-1.63,18.44-1.63,7.29,0,14.4,.8,21.33,2.39m70.71,14.95c.44,.71,.66,1.43,.66,2.16,0,.97-.28,1.74-.83,2.29-.71,.55-1.75,.83-3.12,.83,.89-1.66,1.98-3.42,3.29-5.28m-41.64-21.4c-.11-1.37,.22-2.41,1-3.12,.71-.6,2.03-.76,3.95-.5-1.11,.89-2.76,2.09-4.95,3.62m29.57,13.06s-.08,.08-.1,.1c-1.66,2.22-3.3,4.87-4.92,7.98-2.79,5.16-4.67,9.43-5.65,12.79l4.65,5.32c.64-4.61,2.35-9.46,5.12-14.55,1.53-2.92,3.07-5.43,4.62-7.51,.2-.22,.37-.49,.5-.8-1.57-1.73-2.98-2.84-4.22-3.32m-74.2-3.46c-1.82-.11-3.64-.17-5.48-.17-25.28,0-46.84,8.95-64.7,26.85-17.9,17.9-26.85,39.49-26.85,64.76s8.95,46.87,26.85,64.76c17.86,17.9,39.42,26.85,64.7,26.85,25.32,0,46.91-8.95,64.76-26.85,7-6.98,12.64-14.53,16.91-22.66,6.62-12.65,9.94-26.68,9.94-42.1,0-25.28-8.95-46.87-26.85-64.76-7.42-7.42-15.49-13.3-24.19-17.65-6.18-3.1-12.69-5.42-19.54-6.95-5.01-1.13-10.19-1.83-15.55-2.09m-5.48,4.95c7.33,0,14.34,.8,21.03,2.39,13.23,3.15,25.17,9.4,35.82,18.77,1.51,1.31,2.98,2.68,4.42,4.12,14.53,14.51,22.81,31.66,24.82,51.44-.13-.2-.27-.39-.4-.56-7.71-4.83-17.7-2.69-29.97,6.41-6.25,4.63-13.08,11.05-20.5,19.27-4.65,5.14-9.38,9.69-14.19,13.66-18.05,14.82-37.33,21.38-57.82,19.67-7.75-.64-14.74-2.38-20.97-5.22-6.67-3.41-12.41-8.19-17.21-14.32-10.74-13.8-13.67-30.46-8.77-49.98,4.85-19.52,16.12-36.17,33.79-49.94,.22-.18,.44-.34,.66-.5,14.33-10.15,30.76-15.22,49.28-15.22Z"/></g></svg>