<?xml version="1.0" encoding="UTF-8"?><svg id="a" xmlns="http://www.w3.org/2000/svg" viewBox="0 0 131.09 141.4"><defs><style>.d{fill:#fff;}</style></defs><g id="b"><g id="c"><path class="d" d="M61.5,18.5c-3.9,0-7.6,.3-11.3,1-4.3,.8-8.5,2-12.6,3.8-7.4,3.1-13.9,7.5-19.5,13.2-5.7,5.7-10.1,12.2-13.2,19.6C1.6,63.7,0,71.7,0,80s1.6,16.4,4.9,23.9c3.1,7.4,7.5,13.9,13.2,19.5,5.7,5.6,12.2,10.1,19.5,13.2,4.1,1.8,8.3,3,12.6,3.8,3.7,.7,7.4,1,11.3,1,8.4,0,16.3-1.6,23.9-4.8,7.4-3.1,13.9-7.5,19.6-13.2s10.1-12.2,13.2-19.5c3.2-7.6,4.8-15.5,4.8-23.9,0-4.1-.4-8.2-1.2-12-1.4-7.4-4.2-14.3-8.4-20.8,.2-.8,.5-2,1-3.5,1.1,.2,1.9,.3,2.4,.3,1,0,2-.1,2.9-.2,1.2-.2,2.3-.6,3.3-1.1,.1,0,.2,0,.3-.1,2-.9,3.6-2.3,4.9-4.1,.7-.9,1.3-1.8,1.6-2.8h0c.5-1,.8-2,1-3,.4-2.1,.4-4.1-.1-6v-.3c-.1-.3-.2-.6-.3-.8v-.1c-.2-.4-.3-.7-.4-1,0-.07-.03-.13-.1-.2-.8-2-2.1-4.1-3.7-6.1-2.6-3.3-6.2-6.6-10.9-10-3.4-2.6-6.9-4.6-10.5-6C101.1,.7,97.7,0,94.5,0,93.1,0,91.9,.2,90.9,.5h-.2c-3.7,.8-6.5,3.1-8.4,6.8-1.1,2-1.7,4.1-1.9,6.5s0,4.4,.7,6.2c0,.1,.1,.2,.1,.3l.3,.6c.1,.1,.2,.3,.4,.4,.1,0,.1,.1,.2,.1h.1l.4,.1c-.4,.2-.8,.4-1.1,.6-6.3-2.5-13.1-3.6-20-3.6M21.9,40.3c10.9-10.9,24.1-16.3,39.5-16.3s28.7,5.5,39.6,16.3c10.9,10.9,16.3,24.1,16.3,39.6s-5.5,28.6-16.4,39.5c-10.9,10.9-24.1,16.3-39.6,16.3s-28.6-5.4-39.5-16.3c-10.9-10.9-16.4-24.1-16.4-39.5,.2-15.5,5.6-28.7,16.5-39.6M92.1,5h0c.8-.2,1.8-.3,2.8-.3,2.6,0,5.5,.6,8.7,2,3.1,1.2,6.2,2.9,9.3,5.1,4,2.9,7.1,5.6,9.4,8.3,1.7,2.1,3,4.2,3.8,6.3h0c.1,.4,.2,.7,.3,1.1v-.1c.3,1.3,.3,2.6,0,4.1-.3,1.4-.8,2.7-1.7,3.8-1.5,1.8-3.3,2.9-5.4,3.3h0c-.7,.1-1.5,.2-2.3,.2-1,0-2.1-.1-3.3-.3,.2-.4,.3-.8,.5-1.3,.2,.1,.7,.1,1.3,.1,1.6,0,2.8-.4,3.7-1.1,1.1-.9,1.7-2.1,1.6-3.7,0-1.9-1.5-4.3-4.6-7.2-2-1.9-4.7-4.1-8.2-6.5-8.8-5.8-14.5-7.4-17.3-4.6-1.5,1.5-1.8,3.4-1,5.6-.7,.5-1.4,.9-2.2,1.4v-.2c0-.5-.1-.8-.4-1-.6-.9-1-1.6-1.1-2.1v-.1c0-.1-.1-.2-.1-.2-.5-1.1-.6-2.5-.4-4,.2-1.7,.7-3.3,1.4-4.7,1.3-2,3-3.4,5.2-3.9m.2,13.5c-.1-.8,.1-1.5,.6-1.9,.4-.4,1.2-.5,2.4-.3-.6,.5-1.6,1.2-3,2.2m6.5-1.3c2.1,.9,4.7,2.3,7.8,4.3,3.7,2.4,6.7,4.9,9.2,7.5-2.8,3.6-5.1,8.6-7.1,15-1.6-2.1-3.4-4.1-5.3-6-5.3-5.3-11-9.3-17.3-12.2,3.7-2.1,8-4.9,12.7-8.6m16.8,17.5c.5-1,1.2-2.1,2-3.2,.3,.4,.4,.9,.4,1.3,0,.6-.2,1.1-.5,1.4-.4,.3-1,.5-1.9,.5m-2.9-5.1c.2-.2,.3-.5,.3-.8s-.2-.6-.4-.8c-.2-.2-.5-.3-.8-.3s-.6,.2-.8,.4c-.7,.8-1.4,1.8-2.2,2.9-1.4,2.2-2.3,4.3-2.7,6.3-.1,.3,0,.7,.2,1s.4,.4,.7,.5h.2c.6,0,1-.3,1.2-.9,.3-1.7,1.2-3.5,2.5-5.5,.5-1.2,1.2-2.1,1.8-2.8m.6,53.2v-1.6c-3.1,.6-6.5,1.7-10.3,3.1-3.8,1.5-10.7,4.6-20.9,9.4-11.4,5.3-24.4,7.4-38.9,6.2-14.7-1.2-25.9-6.3-33.4-15.4,.8,12.7,5.8,23.6,15,32.8,10.2,10.2,22.4,15.2,36.6,15.3,14.3,0,26.5-5.1,36.6-15.3,9.8-9.6,14.8-21.1,15.3-34.5m-23.1,17c.9,.9,1.4,2,1.4,3.3s-.5,2.4-1.4,3.3-2,1.4-3.3,1.4-2.4-.5-3.3-1.4h-.1c-.9-.9-1.3-2-1.3-3.3,0-1.2,.4-2.2,1.2-3.1h0s.1-.1,.2-.1c.9-.9,2-1.4,3.3-1.4,1.4,0,2.4,.4,3.3,1.3m-9.7,21c0,.5-.2,.8-.5,1.1-.3,.4-.7,.5-1.2,.5s-.9-.2-1.3-.5c-.3-.3-.5-.7-.5-1.1,0-.5,.2-.9,.5-1.3,.3-.3,.8-.5,1.3-.5s.9,.2,1.2,.5c.3,.4,.5,.8,.5,1.3m-36.6-3.2c-.9-1-1.4-2.1-1.4-3.5,0-1.3,.5-2.5,1.4-3.5,1-1,2.1-1.5,3.5-1.5s2.5,.5,3.5,1.5,1.4,2.1,1.4,3.5c0,1.3-.5,2.5-1.4,3.5s-2.1,1.4-3.5,1.4c-1.3,0-2.5-.5-3.5-1.4m12.7,1.3c-.6-.6-.9-1.3-.9-2.1s.3-1.5,.9-2.1c.6-.6,1.3-.9,2.1-.9s1.5,.3,2.1,.9,.9,1.3,.9,2.1-.3,1.5-.9,2.1c-.6,.6-1.3,.8-2.1,.8-.8,.1-1.5-.2-2.1-.8m18.3-5.7c.6,.6,.9,1.3,.9,2,0,.8-.3,1.5-.9,2-.6,.6-1.2,.9-2,.9s-1.5-.3-2.1-.9-.9-1.2-.9-2,.3-1.5,.9-2c.6-.6,1.3-.8,2.1-.8,.7-.1,1.4,.2,2,.8m31.4-45.1c-4.3-1.5-10.1-2.3-17.3-2.5-10.2-.3-20.6,1.5-31.2,5.3-7.3,2.6-15.7,3.5-25.2,2.9-8.1-.5-13.7-.4-16.6,.2-3.8,.8-5.6,2.9-5.4,6.1,.1,2.5,1.5,5,4.1,7.5,2.7,2.5,6.3,4.6,10.8,6.3,10.7,3.9,23.2,4.5,37.5,1.8,6.4-1.2,12.6-3.1,18.5-5.5,3.3-1.3,7.9-3.3,13.8-5.9,3.3-1.3,7.1-2.7,11.4-4.3,4.7-1.2,6.9-2.9,6.8-5-.1-3.1-2.5-5.3-7.2-6.9m-9.8-15.4c-.7-.8-1.6-1.1-2.7-1.1-1,0-1.9,.4-2.7,1.1-.7,.7-1.1,1.6-1.1,2.7s.4,2,1.1,2.7c.8,.7,1.7,1.1,2.7,1.1s1.9-.4,2.7-1.1c.8-.8,1.1-1.7,1.1-2.7,0-1.1-.3-2-1.1-2.7m-26.4-9.2c0,2.5,.9,4.6,2.7,6.4,1.7,1.7,3.8,2.6,6.3,2.6s4.6-.9,6.4-2.6c1.8-1.8,2.6-3.9,2.6-6.4s-.9-4.6-2.6-6.3c-1.8-1.8-3.9-2.7-6.4-2.7s-4.6,.9-6.3,2.7c-1.8,1.7-2.7,3.8-2.7,6.3Z"/></g></g></svg>