<?xml version="1.0" encoding="UTF-8"?><svg id="c" xmlns="http://www.w3.org/2000/svg" viewBox="0 0 1634.19 405.34"><path d="M747.64,147.54h-.02s.14,.01,.14,.01l18.9-15.24-1.32-1.64-3.55-4.4,4.4-3.55,8.79-7.09c-2.62-9.89-11.12-17.63-21.91-18.78-3.34-.36-6.6-.05-9.65,.8l13.46,16.7-1.51,14.08-14.08-1.51-13.46-16.7c-1.48,2.8-2.47,5.91-2.83,9.26-1.5,13.99,8.63,26.56,22.62,28.06Z" style="fill:#ca2ebd;"/><polygon points="769.77 127.13 774.64 133.17 749.52 153.44 738.59 152.27 719.28 172.98 729.33 185.45 753.67 170.98 754.84 160.07 779.98 139.8 784.85 145.84 816.04 120.7 800.95 101.99 769.77 127.13" style="fill:#ca2ebd;"/><polygon points="543.64 170.04 497.69 54.99 440.94 54.99 440.94 245.09 480.94 245.09 480.94 112.04 534.54 245.09 552.19 245.09 605.79 112.04 605.79 244.74 647.04 244.74 647.04 54.99 589.99 54.99 543.64 170.04" style="fill:#ca2ebd;"/><path d="M358.64,130.94c-17.7-3.87-30.25-7.07-37.65-9.6-11.27-3.77-16.9-8.92-16.9-15.45,0-5.7,2.3-10.25,6.9-13.65,4.87-3.5,11.53-5.25,20-5.25,9.57,0,19.27,1.68,29.1,5.05,9.93,3.63,18.65,8.85,26.15,15.65l22.35-29.45c-18.77-17.57-43.42-26.35-73.95-26.35-21.7,0-39.27,5.63-52.7,16.9-12.73,10.9-19.1,24.47-19.1,40.7s5.7,29.15,17.1,38.35c8,6.8,20.48,12.5,37.45,17.1,7.37,2.07,19.9,5.33,37.6,9.8,11.5,4.27,17.25,9.97,17.25,17.1,0,5.7-2.72,10.55-8.15,14.55-6.07,4.23-14.37,6.35-24.9,6.35-12.6,0-24.3-2.42-35.1-7.25-9.33-4.37-17.82-10.43-25.45-18.2l-21.8,30.9c20.23,20.37,47.02,30.18,80.35,29.45,24.97,0,44.05-5.82,57.25-17.45,12.47-10.8,18.7-25.33,18.7-43.6,0-26.9-18.17-45.45-54.5-55.65Z" style="fill:#ca2ebd;"/><path d="M1239.74,130.94c-17.93-3.87-30.42-7.07-37.45-9.6-11.37-3.77-17.05-8.92-17.05-15.45,0-5.7,2.3-10.25,6.9-13.65,4.83-3.5,11.48-5.25,19.95-5.25,9.6,0,19.3,1.68,29.1,5.05,9.93,3.63,18.6,8.85,26,15.65l22.55-29.45c-19.03-17.57-43.7-26.35-74-26.35-21.67,0-39.23,5.63-52.7,16.9-12.97,10.9-19.45,24.47-19.45,40.7s5.7,29.02,17.1,38.35c8.23,6.8,20.83,12.5,37.8,17.1,9.07,2.53,21.6,5.8,37.6,9.8,11.4,4.27,17.1,9.97,17.1,17.1,0,5.7-2.73,10.55-8.2,14.55-6.03,4.23-14.38,6.35-25.05,6.35-12.37,0-23.93-2.42-34.7-7.25-9.7-4.63-18.18-10.7-25.45-18.2l-21.85,30.9c19.9,20.37,46.62,30.18,80.15,29.45,24.97,0,44.05-5.82,57.25-17.45,12.6-10.8,18.9-25.33,18.9-43.6,0-26.9-18.17-45.45-54.5-55.65Z" style="fill:#ca2ebd;"/><path d="M141.99,52.09c-28.7,0-52.38,9.2-71.05,27.6-18.67,18.67-28,42.18-28,70.55s9.38,52.03,28.15,70.7c18.67,18.27,42.3,27.4,70.9,27.4s52.45-9.13,71.25-27.4c18.53-18.67,27.8-42.23,27.8-70.7s-9.27-51.75-27.8-70.55c-19.03-18.4-42.78-27.6-71.25-27.6Zm42.15,142.45c-11,12.13-25.05,18.2-42.15,18.2s-31.03-6-41.8-18c-10.3-11.5-15.45-26.33-15.45-44.5s5.15-32.78,15.45-44.55c10.9-12,24.83-18,41.8-18s31.15,6,42.15,18c10.57,11.87,15.85,26.72,15.85,44.55s-5.28,32.7-15.85,44.3Z" style="fill:#ca2ebd;"/><path d="M990.74,130.94c-17.93-3.87-30.42-7.07-37.45-9.6-11.37-3.77-17.05-8.92-17.05-15.45,0-5.7,2.3-10.25,6.9-13.65,4.83-3.5,11.5-5.25,20-5.25,9.57,0,19.25,1.68,29.05,5.05,9.93,3.63,18.6,8.85,26,15.65l22.55-29.45c-19.03-17.57-43.7-26.35-74-26.35-21.57,0-39.18,5.63-52.85,16.9-12.73,10.9-19.1,24.47-19.1,40.7s5.63,29.15,16.9,38.35c8.23,6.8,20.83,12.5,37.8,17.1,9.1,2.53,21.63,5.8,37.6,9.8,11.4,4.27,17.1,9.97,17.1,17.1,0,5.7-2.72,10.55-8.15,14.55-6.07,4.23-14.43,6.35-25.1,6.35-12.37,0-23.93-2.42-34.7-7.25-9.7-4.63-18.18-10.7-25.45-18.2l-21.8,30.9c20.33,20.37,47.05,30.18,80.15,29.45,24.93,0,44.02-5.82,57.25-17.45,12.6-10.8,18.9-25.33,18.9-43.6,0-26.9-18.18-45.45-54.55-55.65Z" style="fill:#ca2ebd;"/><rect x="1072.54" y="54.99" width="40.9" height="189.75" style="fill:#ca2ebd;"/><path d="M814.97,69.42c-6.18-3.1-12.69-5.42-19.54-6.95-5.01-1.13-10.19-1.83-15.55-2.09-1.82-.11-3.64-.17-5.48-.17-25.28,0-46.84,8.95-64.7,26.85-17.9,17.9-26.85,39.49-26.85,64.76s8.95,46.87,26.85,64.77c17.86,17.9,39.42,26.85,64.7,26.85,25.32,0,46.91-8.95,64.76-26.85,7-6.98,12.64-14.53,16.91-22.66,6.62-12.65,9.94-26.68,9.94-42.1,0-25.28-8.95-46.87-26.85-64.76-7.42-7.42-15.49-13.3-24.19-17.65Zm-23.77,110.2l-5.33-6.61,6.61-5.33,5.33,6.61-6.61,5.33Zm68.89-38.12c-7.71-4.83-17.7-2.69-29.97,6.41-6.25,4.63-13.08,11.05-20.5,19.27-1.35,1.49-2.71,2.92-4.08,4.32l-17.13-21.24-4.4,3.55-3.55-4.42-1.32-1.64-14.3,11.53,22.32,27.69c-15.64,10.46-32.15,14.98-49.54,13.54-7.75-.64-14.74-2.38-20.97-5.22-6.67-3.41-12.41-8.19-17.21-14.32-10.74-13.8-13.67-30.46-8.77-49.98,4.85-19.52,16.12-36.17,33.79-49.94,.22-.18,.44-.34,.66-.5,14.33-10.15,30.76-15.22,49.28-15.22,7.33,0,14.34,.8,21.03,2.39,13.23,3.15,25.17,9.4,35.82,18.77,1.51,1.31,2.98,2.68,4.42,4.12,14.53,14.51,22.81,31.66,24.82,51.44-.13-.2-.27-.39-.4-.56Z" style="fill:#ca2ebd;"/><path d="M854.08,63.83s-.08,.08-.1,.1c-1.66,2.22-3.3,4.87-4.92,7.98-2.79,5.16-4.67,9.43-5.65,12.79l4.65,5.32c.64-4.61,2.35-9.46,5.12-14.55,1.53-2.92,3.07-5.43,4.62-7.51,.2-.22,.37-.49,.5-.8-1.57-1.73-2.98-2.84-4.22-3.32Z" style="fill:#ca2ebd;"/><path d="M887.17,64.93c-.22-.53-.39-1.05-.5-1.56-.2-.64-.41-1.22-.63-1.73-1.33-3.23-3.28-6.47-5.85-9.7-4.19-5.32-10.04-10.67-17.55-16.05-5.43-4.23-11.08-7.47-16.95-9.7-5.83-2.3-11.23-3.46-16.22-3.46-2.3,0-4.29,.24-5.95,.73-5.58,1.26-9.78,4.64-12.59,10.14-1.64,3.12-2.63,6.52-2.96,10.2-.2,2.08-.18,3.99,.07,5.72,.09,.95,.27,1.88,.53,2.79,.35,1.15,.91,2.2,1.66,3.16l2.19,2.72-4.95-1.89c-4.01-1.4-8.03-2.53-12.06-3.39-7.11-1.57-14.28-2.36-21.5-2.36-6.38,0-12.58,.58-18.61,1.73-7.09,1.26-14,3.35-20.74,6.25-12.18,5.16-22.9,12.41-32.13,21.73-9.33,9.33-16.57,20.06-21.73,32.2-5.36,12.56-8.04,25.68-8.04,39.34s2.68,26.94,8.04,39.34c5.16,12.12,12.41,22.85,21.73,32.2,9.35,9.33,20.06,16.57,32.13,21.73,6.73,2.9,13.65,5.01,20.74,6.31,6.03,1.11,12.23,1.66,18.61,1.66,13.76,0,26.87-2.66,39.34-7.98,12.12-5.16,22.84-12.41,32.17-21.73,8.62-8.62,15.45-18.42,20.5-29.41,.42-.93,.83-1.86,1.23-2.79,5.34-12.45,8.01-25.56,8.01-39.34,0-6.8-.63-13.41-1.89-19.84-2.37-12.14-6.98-23.58-13.82-34.33l-3.02-4.39,.9-2.63,3.92,.76c1.48,.22,2.99,.33,4.52,.33s3.03-.11,4.45-.33c1.93-.4,3.77-1.01,5.52-1.83h.07c3.03-1.42,5.56-3.5,7.58-6.25,1.04-1.33,1.89-2.76,2.56-4.29,.66-1.42,1.16-2.92,1.5-4.52,.64-3.3,.55-6.46-.27-9.47v-.1Zm-35.92,28.31l4.88,7.24c4.43,7.09,7.9,14.7,10.4,22.83,.86,3.01,1.59,6,2.19,8.97,1.26,6.25,1.89,12.64,1.89,19.17,0,15.49-3.17,29.64-9.5,42.47-4.61,9.3-10.88,17.92-18.81,25.85-18.81,18.87-41.58,28.31-68.32,28.31-6.36,0-12.47-.52-18.34-1.56-18.87-3.5-35.5-12.42-49.88-26.75-18.83-18.83-28.25-41.6-28.25-68.32s9.44-49.45,28.31-68.32c14.33-14.38,30.94-23.27,49.81-26.68,5.91-1.09,12.06-1.63,18.44-1.63,7.29,0,14.4,.8,21.33,2.39,4.1,.95,8.13,2.17,12.1,3.66-.11-.02,.06,.06,.5,.23,.42,.18,2.24,.85,5.45,2.03,6.36-3.35,13.57-8.17,21.63-14.49,3.52,1.42,7.81,3.78,12.86,7.08,6.03,3.94,11.08,8.05,15.15,12.33-.44,.58-.88,1.19-1.3,1.83-4.05,5.87-7.58,13.66-10.57,23.36Zm-26.75-42.47c-.11-1.37,.22-2.41,1-3.12,.71-.6,2.03-.76,3.95-.5-1.11,.89-2.76,2.09-4.95,3.62Zm41.64,21.4c.44,.71,.66,1.43,.66,2.16,0,.97-.28,1.74-.83,2.29-.71,.55-1.75,.83-3.12,.83,.89-1.66,1.98-3.42,3.29-5.28Zm16.85,1.26c-.49,2.57-1.53,4.87-3.12,6.91-2.7,3.35-6.03,5.39-9.97,6.15-1.26,.29-2.6,.43-4.02,.43-2.08,0-4.31-.3-6.68-.9-.09-.04-.18-.07-.27-.07,.53-1.35,1.1-2.7,1.69-4.05,.4,.11,1.14,.17,2.23,.17,2.64,0,4.67-.61,6.11-1.83,1.86-1.42,2.74-3.44,2.63-6.08,0-3.19-2.53-7.14-7.58-11.86-3.3-3.12-7.8-6.69-13.49-10.7-14.44-9.61-23.94-12.14-28.48-7.58-2.48,2.48-3.03,5.56-1.66,9.24-1.33,.89-2.77,1.79-4.32,2.72l-.33-.4s-.08-.1-.1-.17c-.11-.16-.21-.3-.3-.43-.58-.91-1.13-1.86-1.66-2.86-.22-.47-.33-.72-.33-.76-.86-2.15-1.14-4.67-.83-7.58,.33-3.01,1.16-5.78,2.49-8.31,2.3-4.3,5.48-6.91,9.54-7.84h-.07c1.53-.33,3.2-.5,5.02-.5,4.5,0,9.44,1.07,14.82,3.22,5.32,2.08,10.56,5.02,15.72,8.81,6.69,4.83,11.91,9.44,15.65,13.82,3.06,3.63,5.25,7.29,6.58,10.97v-.1c.16,.71,.34,1.4,.56,2.06,.66,2.41,.72,4.92,.17,7.51Z" style="fill:#ca2ebd;"/><path d="M942.2,211.46c-1.96,.97-4.17,1.74-6.45,2.06-11.85,1.64-27.99-4.24-40.18-6.73-6.92-1.36-15.34-1.82-23.32-.71-11.62,1.61-22.31,6.58-26.35,17.59-1.84,5.13-2.35,9.85-1.81,13.72,1.33,9.57,8.17,15.35,12.84,17.26,5.16,2.07,10.79,2.45,16.03,1.72,3.42-.47,6.54-1.37,9.61-2.73,3.29-1.39,4.92-1.38,5.47-.76,1.1,1.24-.34,4.23-1.68,6.27-1.99,2.37-12.06,13.52-26.18,15.48-4.33,.6-8.78,.29-13.62-1.13-10.69-3.39-17.55-12.66-19.16-24.28-.41-2.96-.63-6.18-.16-9.5,2.2-20.97,22.53-38.42,45.6-41.16,22.88-2.48,49.76,2.15,58.26-.19,8.76-2.14,12.06-5.16,13.23-6.71,.92-1.75,4.43-1.54,5.03,2.79,.63,4.56,.66,13.14-7.16,17.02Z" style="fill:#462daf;"/><path d="M932.13,224.24c-2.63,7.8-5.31,18.62-4.17,33.55,.09,2.31,.37,4.36,.69,6.64,1.33,9.57,3.69,19.92,5.21,30.86,1.68,12.07,2.31,24.99-.9,38.67-4.63,20.15-22.49,43.76-53.24,48.02-2.51,.35-5.04,.47-7.58,.59-35.13,1.16-45.55-20.38-44.63-32.12,.89-10.34,6.08-14.77,8.65-16.29,2.35-1.49,12.66-2.45,17.37-.32,4.74,2.36,4.79,6.07,1.75,9.28-3.01,3.44-6.94,10.25-6.05,16.63,.92,6.61,5.31,14.82,19.19,16.15,2.83,.3,5.82,.12,8.78-.29,11.62-1.61,23.22-8.33,28.13-23.18,8.96-27.48-2.4-65.84,8.55-105.68,4.29-15.92,10.15-23.93,12.53-26.82,1.44-1.36,3.62-2.36,5.11-1.64,1.23,.53,1.94,2.28,.59,5.95Z" style="fill:#462daf;"/><path d="M1034.08,351.5c-5.94,4.08-14.14,6.84-21.66,7.88-4.1,.57-7.81,.62-11.12,.15-2.32,1.71-8.11,3.45-10.62,3.8-22.88,4.1-37.59-9.88-39.87-26.28-3.22-24.86,16.29-46.61,37.86-50.07,24.54-3.87,35.47,11.33,37.27,25.94,1.57,13.02-4.63,28.51-15.25,39.04,6.6,.71,14.9-1.37,20.94-6.39,7.96-6.21,11.64-14.85,13.15-19.01,.66-1.95,2.84-2.95,4.27-2.68,1.46,.49,2.37,1.99,1.35,4.69-1.98,5.85-6.83,16.04-16.32,22.93Zm-25.61-37.31c-2.18-15.72-10.45-21.77-19.4-20.99-10.28,1.19-19.76,11.57-19.13,34.47,.05,3.71,.26,6.93,.68,9.89,2.18,15.72,8.53,21.34,17.62,19.85,9.34-1.3,20.5-11.2,20.82-34,.01-3.25-.2-6.47-.58-9.21Z" style="fill:#462daf;"/><path d="M1124.29,338.98c-5.94,4.08-14.14,6.84-21.66,7.88-4.1,.57-7.81,.62-11.12,.15-2.32,1.71-8.11,3.45-10.62,3.8-22.88,4.1-37.59-9.88-39.87-26.28-3.22-24.86,16.29-46.61,37.87-50.07,24.54-3.87,35.47,11.33,37.27,25.94,1.57,13.02-4.63,28.51-15.25,39.04,6.6,.71,14.9-1.37,20.94-6.39,7.96-6.21,11.64-14.85,13.15-19.01,.66-1.95,2.84-2.95,4.27-2.68,1.46,.49,2.37,1.99,1.35,4.69-1.97,5.85-6.83,16.04-16.32,22.93Zm-25.61-37.31c-2.18-15.72-10.45-21.77-19.4-20.99-10.28,1.19-19.76,11.57-19.13,34.47,.05,3.71,.26,6.93,.68,9.89,2.18,15.72,8.53,21.34,17.61,19.85,9.34-1.3,20.5-11.2,20.82-34,.01-3.25-.2-6.47-.58-9.21Z" style="fill:#462daf;"/><path d="M1177.81,328.07c-5.59,6.58-14.23,12.89-24.77,12.26-11.02-.79-18.61-15.3-21.74-37.85-1.68-12.07-2.04-26.42-1-42.35,2.91-44.29,11.34-85.63,29.19-85.79,7.9,.06,11.64,8.6,13.16,19.54,1.93,13.9,.17,31.32-1.04,39.38-1.94,12.81-12.63,44.48-22.36,59.76,.44,4.82,.87,9.63,1.47,13.96,1.93,13.9,4.88,23.47,8.46,24.14,7.61,1.27,13.39-5.57,17.09-10.73,3.7-5.16,7.11-12.36,8.39-16.49,.69-1.72,1.57-2.08,2.54-1.75,1.04,.78,2.04,2.97,1.25,5.63-1.22,4.58-4.84,13.67-10.65,20.29Zm-29.77-72.26c-.03,8.13-.03,16.49,.39,24.56,5.89-9.41,12.69-25.68,16.98-48.33,2.66-14.3,3.07-28.06,1.74-37.63-1.14-8.2-3.49-13.45-7.03-13.88-7.61-1.27-12,40.67-12.08,75.28Z" style="fill:#462daf;"/><path d="M1425.01,295.62c-4.83,5.32-15.44,14.22-27.24,12.84-13.43-1.39-21.38-13.52-24.35-28.2-3-14.91-6.05-40.26-15.75-48.2-4.47-3.79-11.11-4.73-16.83-4.17,.82,15.91,1.8,31.33-.47,43.49-3.4,20.67-19.65,49.17-51.73,52.23-31.82,3.26-44.62-18.65-43.38-34.85,1.27-15.96,16.11-26.15,26.47-23.41,5.52,1.32,8.66,5.53,9.2,9.41,.44,3.19-.77,6.14-3.8,7.73-6.65,3.94-13.11,7.62-15.09,15.1-1.98,7.47,.84,17.76,17.58,19.62,2.34,.14,4.46,.31,6.73,0,14.35-1.99,25.3-15.12,27.88-34.99,2.98-22.01,2.52-37.04,3.82-52.78,1.09-12.23,3.85-27.47,4.58-30.59,.47-3.32-1.46-2.12-2.73,.38-.92,1.75-18.14,21.56-37.5,24.25-5.92,.82-12.07,.05-17.88-3.32-6.81-3.93-10.62-11.3-11.7-19.04-1.26-9.11,1.08-18.96,6.19-25.7,2.39-2.88,4.14-3.59,5.38-3.07,1.72,.69,2.23,4.33,.98,7.06-1.02,2.7-1.68,6.27-1.15,10.14,.7,5.01,3.28,10.23,8.69,14.12,3.34,2.32,8.57,3.22,14.5,2.4,10.94-1.52,24.33-8.72,34.08-22.14,15.77-21.93,19.41-39.15,23.37-44.11,1.8-2.11,4.01-2.88,5.47-2.39,2.15,.4,2.98,3.07,.36,7.61-4.68,8.08-10.03,26.47-10.82,45.85-.3,9.56,.18,19.71,.66,29.86,4.2-1.51,8.96-4.03,14.57-8.76,11.85-10,17.39-28.65,21.63-39.92,4.47-11.3,9.27-25.2,17.25-34.67,8.17-9.72,13.58-12.57,16.9-13.72,1.76-.71,3.12,.73,3.57,2.29,.48,1.79-.18,3.74-2.56,5-4.56,2.26-7.58,8.95-10.08,16.03-3.52,9.78-6.35,26.19-13.56,41.12-8.06,15.52-25.39,29.53-30.47,31.4-1.56,.45-1.92,1.2-1.63,1.62,.32,.65,1.56,1.18,2.99,1.44,3.09,.5,11.07,4.5,16.81,10.67,7.06,7.38,15.04,21.36,20.86,38.2,5.79,16.61,8.23,24.17,13.37,24.38,5.37,.18,9.97-5.1,13.54-11.17,3.21-5.32,5.12-11.62,5.75-13.8,.3-1.2,2.25-2.17,3.91-1.94,1.63,0,2.99,1.44,2.06,4.82-2.07,6.79-5.63,16.34-10.43,21.88Z" style="fill:#462daf;"/><path d="M1464.95,288.92c-3.4,3.96-10.39,10.5-19.89,10.65-8.62-.2-16.62-9.3-18.67-24.11-.54-3.87-.62-7.81-.31-12.26,1.24-16.19,3.05-29.91,5.57-33.51,2.49-3.83,4.73-4.37,7.27-4.49,2.77-.15,5.88,.58,7.11,2.73,2.36,3.62-.89,20.33-1.33,32.23-.33,7.71-1.01,17.79-.1,24.39,.51,3.65,1.6,6.51,3.29,6.97,4.87,1.65,11.69-4.41,15.52-10.28,3.66-5.38,5.9-11.04,7.02-14.67,.43-1.92,1.96-2.59,3.2-2.07,.97,.33,1.91,2.06,1.32,4.46-1.29,5.75-5.62,14.71-10,19.96Z" style="fill:#462daf;"/><path d="M1438.73,200.37c-5.66-.61-9.67-6.09-8.93-12.46,.51-6.34,5.67-11,11.1-10.36,5.63,.38,9.67,6.09,9.16,12.43-.74,6.37-5.67,11-11.33,10.4Z" style="fill:#462daf;"/><path d="M1493.26,272.79l-4.99,1.24,1.24,4.99,3.72,14.97-9.98,2.48-12.51,20.77,4.95,19.97,26.62-6.61-.83-3.33-1.65-6.66,13.31-3.3,1.65,6.66,.83,3.33,26.62-6.61-.83-3.33-1.65-6.66,13.31-3.3,1.65,6.66,.83,3.33,26.62-6.61-4.95-19.97-20.77-12.51-9.98,2.48-3.72-14.97-1.24-4.99-4.99,1.24-43.26,10.74Zm43.22,10.47l-33.28,8.26-2.48-9.98,33.28-8.26,2.48,9.98Zm-51.71,90.55l106.48-26.43-7.43-29.95-26.62,6.61,.83,3.33,1.65,6.66-13.31,3.3-1.65-6.66-.83-3.33-26.62,6.61,.83,3.33,1.65,6.66-13.31,3.3-1.65-6.66-.83-3.33-26.62,6.61,7.43,29.95Z" style="fill:#c6451c;"/><path d="M1510.06,282.66c-4.94,6.26-13.25,11.59-22.81,11.29-10.05-.46-15.48-9.46-17.44-23.59-1.2-8.66-1.06-19.36-.13-31.1,.58-7.51,1.5-16,2.18-24.45l-6.61,.92c-2.05,.28-4.09-1.06-4.41-3.33-.28-2.05,1.32-3.9,3.37-4.18l8.66-1.2c1.52-14.14,3.13-25.98,4.12-28.9,1.87-4.9,4.22-6.39,7.44-6.61,3.02,.04,7.08,2.5,6.24,8.19-.47,3.32-1.45,12.97-2.31,25.17l11.62-1.61c2.05-.28,4.1,1.06,4.38,3.11,.32,2.28-1.29,4.13-3.34,4.41l-13.21,1.83c-.58,7.51-.87,15.45-1.43,23.19-.62,15.64-1.69,31.35-.33,41.14,.79,5.7,2.44,9.18,5.3,9.71,6.86,.91,14.17-6.61,17.09-10.73,3.04-4.83,5.87-11.26,6.89-13.96,.3-1.2,2.06-1.91,3.29-1.39,1.01,.56,1.65,1.86,1.06,4.27-1.36,5.3-4.63,11.79-9.6,17.82Z" style="fill:#462daf;"/><rect x="1491.95" y="280.94" width="10.33" height="15" transform="translate(-25.94 358.17) rotate(-13.53)" style="fill:#c6451c;"/></svg>