
<svg xmlns="http://www.w3.org/2000/svg" version="1.1" xmlns:xlink="http://www.w3.org/1999/xlink" preserveAspectRatio="none" x="0px" y="0px" width="512px" height="512px" viewBox="0 0 512 512">
<defs>
<g id="Layer0_0_FILL">
<path fill="#8E83AA" stroke="none" d="
M 390.25 253.9
Q 389.1 249.25 385.6 249.3
L 354.55 246.25 311.05 298.6
Q 307.65 303.25 309.6 308.95
L 324.45 360.2
Q 325.2 363.2 329.15 363.25
L 356.5 363.25
Q 360.3 363.4 362.2 361.1
L 396.1 316.05 390.25 253.9
M 501.7 126.25
Q 502.3 118.45 497.35 117.35
L 475.8 117.35
Q 469.8 116.15 464.55 122.1
L 359.85 240.25 395.3 242.4
Q 398.8 243.4 399.1 246.15
L 403.25 310.7 496.75 178
Q 502.2 171.2 501.7 165.85
L 501.7 126.25 Z"/>
</g>

<g id="Layer0_1_FILL">
<path fill="#8E83AA" stroke="none" d="
M 337.15 370.25
L 324.25 370.25
Q 321.2 370 319.95 366.55
L 309.75 332.75
Q 295.3 333.35 283.95 313.3 273.2 281.45 293.55 261.9 309.25 247.5 322.85 273.6
L 362.6 226.8
Q 337.6 176.3 313.4 170.7 289.25 165.2 273.1 166.55
L 273.1 175.7
Q 281.25 182.15 269.1 190.65 249.05 203.25 206.4 204.9 174.65 205.9 172.45 201.6 169.45 195.85 170.2 190.4 157.75 195.5 146.15 201.6 131.75 210.85 120.25 219.9
L 115.25 224
Q 102.3 234.75 93.7 245.3
L 93.7 245.4
Q 86.5 258.25 88.35 266.4
L 84.8 358.9
Q 84.3 372.5 91.1 386
L 141 452.85 155.6 471.7
Q 174.1 495.6 192.75 493.9 229.85 490 279.9 456.15
L 325.2 402
Q 336.65 388.55 337.15 370.25
M 95.25 290.25
Q 99.4 273.15 127.9 272.65
L 239 272.65
Q 256.7 278.15 255.65 295.3
L 242.75 353.9
Q 240.95 367.5 244.65 379.95
L 254.4 430.6
Q 256.4 440.3 247.5 447.6 181.8 486.35 152.25 453.45 126.5 424.55 100.95 385.9 96.35 379.35 94.4 371.55
L 97.9 371.55 97.9 361.65 103 361.65 103 352.8 108.5 352.8 108.5 364 114.9 364 114.9 374.85 124.45 374.85 124.45 359.95 118.65 359.95 118.65 347.35 108.8 347.35 108.8 335.15 97.6 335.15 97.6 343.65 93.95 343.65 94.2 328.9 94.3 328.9 95.25 290.25
M 215.65 342.3
L 204.05 342.3 204.05 334.05 177.9 334.05 177.9 345.25 169.25 345.25 169.25 355.4 162.55 355.4 162.55 374.1 180.85 374.1 180.85 364 187.95 364 187.95 353.15 196.95 353.15 196.95 359.5 207.45 359.5 207.45 367.75 225.75 367.75 225.75 348.65 215.65 348.65 215.65 342.3 Z"/>
</g>

<g id="Layer0_2_FILL">
<path fill="#8E83AA" stroke="none" d="
M 218.9 161.3
Q 212.25 162.5 208.55 167.45 204.9 172.4 205.65 178.45 206.85 185 211.8 188.7 216.9 192.45 223.55 191.6 229.8 190.4 233.25 185.4 236.85 180.4 235.95 173.8 234.9 167.8 230 164.1 225.15 160.45 218.9 161.3
M 186.7 81.1
Q 177.65 87.45 171.85 96.7
L 188 108.85
Q 191.2 103.75 196.2 100 201.25 96.35 207.35 95.35 215 94.35 220.05 97.4 225.05 100.45 226 105.7 226.7 112 220.15 117.15 213.75 122.2 202.1 124.65
L 206.3 151.95 227.9 148.7 226.1 136.6
Q 234.45 133.2 240.3 127.45 246.2 121.65 249 114.4 251.7 107.3 250.55 99.6 249.05 90.2 243.2 83.5 237.35 76.9 228.35 74.05 219.3 71.2 208.15 72.75 195.8 74.8 186.7 81.1 Z"/>
</g>

<g id="Layer0_3_FILL">
<path fill="#8E83AA" stroke="none" d="
M 24.8 269.2
Q 21 270.45 20.7 273.9
L 13.4 312.25
Q 11.95 318.45 14.1 321.9
L 44.35 364.9
Q 47.2 368.55 51.9 367.6
L 76.85 357.15
Q 79.85 355.45 79.65 353.3 79.9 332.1 80.15 322.1
L 56.15 264.6
Q 54.3 259.8 48.45 261.2
L 24.8 269.2
M 72.25 146.5
Q 54.85 149.75 45.7 159.7
L 23.9 257.35
Q 23.45 261.25 27 260.3
L 53.05 251
Q 58.45 249.5 60.7 254.15
L 80.25 301.2 79.8 251
Q 79.2 243.85 86.35 235.6
L 91.2 182.4
Q 80 144.8 72.25 146.5 Z"/>
</g>
</defs>

<g transform="matrix( 1, 0, 0, 1, 0,0) ">
<use xlink:href="#Layer0_0_FILL"/>
</g>

<g transform="matrix( 1, 0, 0, 1, 0,0) ">
<use xlink:href="#Layer0_1_FILL"/>
</g>

<g transform="matrix( 1, 0, 0, 1, 0,0) ">
<use xlink:href="#Layer0_2_FILL"/>
</g>

<g transform="matrix( 1, 0, 0, 1, 0,0) ">
<use xlink:href="#Layer0_3_FILL"/>
</g>
</svg>
